<svg width="426" height="155" viewBox="0 0 426 155" fill="none" xmlns="http://www.w3.org/2000/svg">
<path d="M29.6999 28.1372C13.4717 43.6324 0.134464 56.5305 0.0524226 56.8158C-0.194926 57.6148 0.383037 58.4429 2.86264 60.8675C5.89327 63.807 5.92144 63.807 9.58636 60.3539L12.4517 57.6718L12.59 85.8648C12.7003 109.178 12.7835 114.144 13.1141 114.514C13.4447 114.971 17.0815 115 59.983 115C102.884 115 106.521 114.972 106.852 114.514C107.182 114.143 107.266 109.178 107.376 85.8356L107.514 57.6427L110.351 60.3539C113.988 63.807 114.016 63.807 117.075 60.8675C118.341 59.6691 119.527 58.3287 119.747 57.8709C120.105 57.1291 120.105 56.987 119.609 56.3581C119.333 55.9586 105.969 43.1176 89.933 27.8227C65.6855 4.68066 60.616 4.18816e-06 59.9818 4.18816e-06C59.3475 4.18816e-06 54.2242 4.73772 29.6999 28.1372ZM87.8942 30.8193L115.586 57.2153L114.788 58.0434L114.016 58.8715L111.454 56.4443C110.048 55.1039 98.0342 43.6603 84.7803 30.9905C65.9891 13.0414 60.534 7.99046 59.9818 7.99046C59.4295 7.99046 54.3613 12.699 36.9747 29.2785C24.6856 41.0074 12.699 52.4497 10.3027 54.7323L5.94838 58.8702L5.14878 58.0421L4.37735 57.214L32.1245 30.7609C47.3621 16.2092 59.9267 4.33827 60.0381 4.36743C60.1201 4.39533 72.6565 16.2954 87.8942 30.8193ZM65.4381 17.4076C68.3034 20.1467 70.701 22.4864 70.701 22.6005C70.7279 22.7438 65.9059 22.8288 59.983 22.8288C54.087 22.8288 49.2368 22.7438 49.265 22.6005C49.2931 22.3152 59.8177 12.2996 60.0111 12.3566C60.092 12.3858 62.5446 14.6684 65.4381 17.4076ZM80.5105 31.8464C83.5411 34.7289 86.077 37.2398 86.104 37.3818C86.186 37.5822 77.2313 37.6671 59.983 37.6671C42.8449 37.6671 33.7787 37.5822 33.862 37.3818C33.9171 37.2385 36.4249 34.7276 39.4555 31.8173L44.9658 26.5672H59.983H75.0002L80.5105 31.8464ZM93.9567 44.6875L97.7318 48.2826V49.5964C97.7318 50.3383 97.6497 51.2234 97.5665 51.5658L97.4012 52.2214H59.8165H22.233V50.252V48.2826L26.0081 44.6875L29.7832 41.0924H59.9548H90.1534L93.9567 44.6875ZM18.7897 111.234C18.7346 111.434 18.1566 111.576 17.4121 111.576H16.1717V82.7833V53.9905L17.4942 52.7921L18.7897 51.5937L18.8717 81.2425C18.8999 97.5366 18.8717 111.033 18.7897 111.234ZM103.049 53.3348L103.793 54.0488V82.8124V111.605L102.498 111.52L101.175 111.434L101.093 81.4999L101.038 51.5658L101.644 52.1073C102.002 52.3926 102.608 52.9633 103.049 53.3348ZM97.455 61.4952V67.0598H86.5987C76.9827 67.0598 75.7153 67.0027 75.3847 66.6032C74.2545 65.1766 70.259 62.9219 66.8708 61.7527C64.7218 61.0387 64.1708 60.9537 60.2585 60.9537C56.9793 60.9258 55.5748 61.04 54.2242 61.4394C50.6425 62.4666 47.3633 64.1507 45.1041 66.1188L44.0572 67.061H33.1457H22.2342V61.6969C22.2342 58.7294 22.3162 56.2186 22.4277 56.1323C22.5097 56.0182 39.4555 55.932 60.0393 55.932H97.4575V61.4952H97.455ZM40.1437 71.6834C38.9584 73.5386 37.3886 77.305 36.8926 79.5026L36.3686 81.7573L29.2873 81.8423L22.233 81.8994V76.3348V70.7703H31.4914H40.7498L40.1437 71.6834ZM97.455 76.3336V81.8981H90.4289C83.4578 81.8981 83.4027 81.8981 83.4027 81.2996C83.4027 79.4735 81.446 74.2221 79.8211 71.6834L79.2149 70.7703H88.335H97.455V76.3336ZM36.2302 91.0869L36.1482 96.5944H29.2591H22.3713L22.2893 91.0869L22.2342 85.6086H29.2604H36.2865L36.2302 91.0869ZM97.455 91.1732V96.7377L90.6493 96.6807L83.8166 96.5957L83.7346 91.0882L83.6795 85.6099H90.5685H97.4575V91.1732H97.455ZM36.2302 105.927L36.1482 111.434H29.2591H22.3713L22.2893 105.927L22.2342 100.447H29.2604H36.2865L36.2302 105.927ZM97.455 106.012V111.576L90.6493 111.519L83.8166 111.433L83.7346 105.925L83.6795 100.446H90.5685H97.4575V106.012H97.455Z" fill="black"/>
<path d="M138 75.472H126.192V72.4H153.36V75.472H141.552V106H138V75.472ZM192.026 80.56C195.194 80.56 197.674 81.472 199.466 83.296C201.29 85.12 202.202 87.808 202.202 91.36V106H198.794V91.696C198.794 89.072 198.154 87.072 196.874 85.696C195.626 84.32 193.85 83.632 191.546 83.632C188.922 83.632 186.858 84.448 185.354 86.08C183.85 87.68 183.098 89.904 183.098 92.752V106H179.69V91.696C179.69 89.072 179.05 87.072 177.77 85.696C176.522 84.32 174.73 83.632 172.394 83.632C169.802 83.632 167.738 84.448 166.202 86.08C164.698 87.68 163.946 89.904 163.946 92.752V106H160.538V80.752H163.802V85.36C164.698 83.824 165.946 82.64 167.546 81.808C169.146 80.976 170.986 80.56 173.066 80.56C175.178 80.56 177.002 81.008 178.538 81.904C180.106 82.8 181.274 84.128 182.042 85.888C182.97 84.224 184.298 82.928 186.026 82C187.786 81.04 189.786 80.56 192.026 80.56ZM223.157 80.56C226.453 80.56 228.981 81.392 230.741 83.056C232.501 84.688 233.381 87.12 233.381 90.352V106H230.117V102.064C229.349 103.376 228.213 104.4 226.709 105.136C225.237 105.872 223.477 106.24 221.429 106.24C218.613 106.24 216.373 105.568 214.709 104.224C213.045 102.88 212.213 101.104 212.213 98.896C212.213 96.752 212.981 95.024 214.517 93.712C216.085 92.4 218.565 91.744 221.957 91.744H229.973V90.208C229.973 88.032 229.365 86.384 228.149 85.264C226.933 84.112 225.157 83.536 222.821 83.536C221.221 83.536 219.685 83.808 218.213 84.352C216.741 84.864 215.477 85.584 214.421 86.512L212.885 83.968C214.165 82.88 215.701 82.048 217.493 81.472C219.285 80.864 221.173 80.56 223.157 80.56ZM221.957 103.552C223.877 103.552 225.525 103.12 226.901 102.256C228.277 101.36 229.301 100.08 229.973 98.416V94.288H222.053C217.733 94.288 215.573 95.792 215.573 98.8C215.573 100.272 216.133 101.44 217.253 102.304C218.373 103.136 219.941 103.552 221.957 103.552ZM258.525 80.56C260.893 80.56 263.037 81.104 264.957 82.192C266.877 83.248 268.381 84.752 269.469 86.704C270.557 88.656 271.101 90.88 271.101 93.376C271.101 95.904 270.557 98.144 269.469 100.096C268.381 102.048 266.877 103.568 264.957 104.656C263.069 105.712 260.925 106.24 258.525 106.24C256.477 106.24 254.621 105.824 252.957 104.992C251.325 104.128 249.981 102.88 248.925 101.248V115.312H245.517V80.752H248.781V85.744C249.805 84.08 251.149 82.8 252.813 81.904C254.509 81.008 256.413 80.56 258.525 80.56ZM258.285 103.216C260.045 103.216 261.645 102.816 263.085 102.016C264.525 101.184 265.645 100.016 266.445 98.512C267.277 97.008 267.693 95.296 267.693 93.376C267.693 91.456 267.277 89.76 266.445 88.288C265.645 86.784 264.525 85.616 263.085 84.784C261.645 83.952 260.045 83.536 258.285 83.536C256.493 83.536 254.877 83.952 253.437 84.784C252.029 85.616 250.909 86.784 250.077 88.288C249.277 89.76 248.877 91.456 248.877 93.376C248.877 95.296 249.277 97.008 250.077 98.512C250.909 100.016 252.029 101.184 253.437 102.016C254.877 102.816 256.493 103.216 258.285 103.216ZM302.912 94.432H281.792C281.984 97.056 282.992 99.184 284.816 100.816C286.64 102.416 288.944 103.216 291.728 103.216C293.296 103.216 294.736 102.944 296.048 102.4C297.36 101.824 298.496 100.992 299.456 99.904L301.376 102.112C300.256 103.456 298.848 104.48 297.152 105.184C295.488 105.888 293.648 106.24 291.632 106.24C289.04 106.24 286.736 105.696 284.72 104.608C282.736 103.488 281.184 101.952 280.064 100C278.944 98.048 278.384 95.84 278.384 93.376C278.384 90.912 278.912 88.704 279.968 86.752C281.056 84.8 282.528 83.28 284.384 82.192C286.272 81.104 288.384 80.56 290.72 80.56C293.056 80.56 295.152 81.104 297.008 82.192C298.864 83.28 300.32 84.8 301.376 86.752C302.432 88.672 302.96 90.88 302.96 93.376L302.912 94.432ZM290.72 83.488C288.288 83.488 286.24 84.272 284.576 85.84C282.944 87.376 282.016 89.392 281.792 91.888H299.696C299.472 89.392 298.528 87.376 296.864 85.84C295.232 84.272 293.184 83.488 290.72 83.488ZM326.073 104.464C325.433 105.04 324.633 105.488 323.673 105.808C322.745 106.096 321.769 106.24 320.745 106.24C318.377 106.24 316.553 105.6 315.273 104.32C313.993 103.04 313.353 101.232 313.353 98.896V83.632H308.841V80.752H313.353V75.232H316.761V80.752H324.441V83.632H316.761V98.704C316.761 100.208 317.129 101.36 317.865 102.16C318.633 102.928 319.721 103.312 321.129 103.312C321.833 103.312 322.505 103.2 323.145 102.976C323.817 102.752 324.393 102.432 324.873 102.016L326.073 104.464Z" fill="black"/>
<path d="M138 75.472H139V74.472H138V75.472ZM126.192 75.472H125.192V76.472H126.192V75.472ZM126.192 72.4V71.4H125.192V72.4H126.192ZM153.36 72.4H154.36V71.4H153.36V72.4ZM153.36 75.472V76.472H154.36V75.472H153.36ZM141.552 75.472V74.472H140.552V75.472H141.552ZM141.552 106V107H142.552V106H141.552ZM138 106H137V107H138V106ZM138 74.472H126.192V76.472H138V74.472ZM127.192 75.472V72.4H125.192V75.472H127.192ZM126.192 73.4H153.36V71.4H126.192V73.4ZM152.36 72.4V75.472H154.36V72.4H152.36ZM153.36 74.472H141.552V76.472H153.36V74.472ZM140.552 75.472V106H142.552V75.472H140.552ZM141.552 105H138V107H141.552V105ZM139 106V75.472H137V106H139ZM199.466 83.296L198.753 83.9968L198.759 84.0031L199.466 83.296ZM202.202 106V107H203.202V106H202.202ZM198.794 106H197.794V107H198.794V106ZM196.874 85.696L196.133 86.3679L196.142 86.3771L196.874 85.696ZM185.354 86.08L186.083 86.7649L186.09 86.7577L185.354 86.08ZM183.098 106V107H184.098V106H183.098ZM179.69 106H178.69V107H179.69V106ZM177.77 85.696L177.029 86.3679L177.038 86.3771L177.77 85.696ZM166.202 86.08L165.474 85.3946L165.474 85.3951L166.202 86.08ZM163.946 106V107H164.946V106H163.946ZM160.538 106H159.538V107H160.538V106ZM160.538 80.752V79.752H159.538V80.752H160.538ZM163.802 80.752H164.802V79.752H163.802V80.752ZM163.802 85.36H162.802V89.0589L164.666 85.8639L163.802 85.36ZM167.546 81.808L168.008 82.6952L168.008 82.6952L167.546 81.808ZM178.538 81.904L178.034 82.7678L178.042 82.7722L178.538 81.904ZM182.042 85.888L181.126 86.2879L181.933 88.1374L182.916 86.3751L182.042 85.888ZM186.026 82L186.499 82.881L186.505 82.8779L186.026 82ZM192.026 81.56C194.994 81.56 197.192 82.4079 198.753 83.9968L200.18 82.5952C198.157 80.5361 195.394 79.56 192.026 79.56V81.56ZM198.759 84.0031C200.334 85.578 201.202 87.9711 201.202 91.36H203.202C203.202 87.6449 202.246 84.662 200.173 82.5889L198.759 84.0031ZM201.202 91.36V106H203.202V91.36H201.202ZM202.202 105H198.794V107H202.202V105ZM199.794 106V91.696H197.794V106H199.794ZM199.794 91.696C199.794 88.9199 199.117 86.6384 197.606 85.0149L196.142 86.3771C197.192 87.5056 197.794 89.2241 197.794 91.696H199.794ZM197.615 85.0242C196.133 83.3907 194.059 82.632 191.546 82.632V84.632C193.641 84.632 195.119 85.2493 196.134 86.3678L197.615 85.0242ZM191.546 82.632C188.698 82.632 186.347 83.5273 184.619 85.4023L186.09 86.7577C187.37 85.3687 189.146 84.632 191.546 84.632V82.632ZM184.626 85.3951C182.9 87.2305 182.098 89.7276 182.098 92.752H184.098C184.098 90.0804 184.8 88.1295 186.083 86.7649L184.626 85.3951ZM182.098 92.752V106H184.098V92.752H182.098ZM183.098 105H179.69V107H183.098V105ZM180.69 106V91.696H178.69V106H180.69ZM180.69 91.696C180.69 88.9199 180.013 86.6384 178.502 85.0149L177.038 86.3771C178.088 87.5056 178.69 89.2241 178.69 91.696H180.69ZM178.511 85.0242C177.027 83.3878 174.935 82.632 172.394 82.632V84.632C174.526 84.632 176.018 85.2522 177.03 86.3678L178.511 85.0242ZM172.394 82.632C169.574 82.632 167.229 83.5299 165.474 85.3946L166.93 86.7654C168.247 85.3661 170.031 84.632 172.394 84.632V82.632ZM165.474 85.3951C163.748 87.2305 162.946 89.7276 162.946 92.752H164.946C164.946 90.0804 165.648 88.1295 166.931 86.7649L165.474 85.3951ZM162.946 92.752V106H164.946V92.752H162.946ZM163.946 105H160.538V107H163.946V105ZM161.538 106V80.752H159.538V106H161.538ZM160.538 81.752H163.802V79.752H160.538V81.752ZM162.802 80.752V85.36H164.802V80.752H162.802ZM164.666 85.8639C165.465 84.4935 166.573 83.4413 168.008 82.6952L167.085 80.9208C165.32 81.8387 163.931 83.1545 162.938 84.8561L164.666 85.8639ZM168.008 82.6952C169.445 81.9479 171.122 81.56 173.066 81.56V79.56C170.85 79.56 168.848 80.0041 167.085 80.9208L168.008 82.6952ZM173.066 81.56C175.035 81.56 176.678 81.9764 178.034 82.7678L179.042 81.0402C177.327 80.0396 175.322 79.56 173.066 79.56V81.56ZM178.042 82.7722C179.411 83.5545 180.438 84.7119 181.126 86.2879L182.959 85.4881C182.111 83.5441 180.801 82.0455 179.034 81.0358L178.042 82.7722ZM182.916 86.3751C183.748 84.883 184.934 83.7214 186.499 82.881L185.553 81.119C183.662 82.1346 182.193 83.565 181.169 85.4009L182.916 86.3751ZM186.505 82.8779C188.102 82.0071 189.934 81.56 192.026 81.56V79.56C189.639 79.56 187.471 80.0729 185.547 81.1221L186.505 82.8779ZM230.741 83.056L230.053 83.7827L230.061 83.7893L230.741 83.056ZM233.381 106V107H234.381V106H233.381ZM230.117 106H229.117V107H230.117V106ZM230.117 102.064H231.117V98.3762L229.253 101.559L230.117 102.064ZM226.709 105.136L226.269 104.238L226.261 104.242L226.709 105.136ZM214.709 104.224L215.337 103.446L214.709 104.224ZM214.517 93.712L213.875 92.945L213.867 92.9516L214.517 93.712ZM229.973 91.744V92.744H230.973V91.744H229.973ZM228.149 85.264L227.461 85.99L227.471 85.9995L228.149 85.264ZM218.213 84.352L218.541 85.2965L218.55 85.2933L218.559 85.29L218.213 84.352ZM214.421 86.512L213.564 87.0289L214.182 88.0525L215.081 87.2632L214.421 86.512ZM212.885 83.968L212.237 83.2061L211.589 83.7568L212.028 84.4849L212.885 83.968ZM217.493 81.472L217.799 82.424L217.806 82.4216L217.814 82.419L217.493 81.472ZM226.901 102.256L227.432 103.103L227.439 103.099L227.446 103.094L226.901 102.256ZM229.973 98.416L230.9 98.7905L230.973 98.6103V98.416H229.973ZM229.973 94.288H230.973V93.288H229.973V94.288ZM217.253 102.304L216.642 103.096L216.649 103.101L216.656 103.107L217.253 102.304ZM223.157 81.56C226.291 81.56 228.538 82.3495 230.053 83.7826L231.428 82.3294C229.423 80.4345 226.614 79.56 223.157 79.56V81.56ZM230.061 83.7893C231.553 85.1731 232.381 87.2978 232.381 90.352H234.381C234.381 86.9422 233.448 84.2029 231.42 82.3227L230.061 83.7893ZM232.381 90.352V106H234.381V90.352H232.381ZM233.381 105H230.117V107H233.381V105ZM231.117 106V102.064H229.117V106H231.117ZM229.253 101.559C228.595 102.684 227.615 103.579 226.269 104.238L227.148 106.034C228.81 105.221 230.102 104.068 230.98 102.569L229.253 101.559ZM226.261 104.242C224.958 104.893 223.358 105.24 221.429 105.24V107.24C223.595 107.24 225.515 106.851 227.156 106.03L226.261 104.242ZM221.429 105.24C218.768 105.24 216.774 104.606 215.337 103.446L214.08 105.002C215.971 106.53 218.457 107.24 221.429 107.24V105.24ZM215.337 103.446C213.917 102.299 213.213 100.813 213.213 98.896H211.213C211.213 101.395 212.172 103.461 214.08 105.002L215.337 103.446ZM213.213 98.896C213.213 97.0241 213.868 95.5815 215.166 94.4724L213.867 92.9516C212.094 94.4665 211.213 96.4799 211.213 98.896H213.213ZM215.158 94.4789C216.461 93.389 218.656 92.744 221.957 92.744V90.744C218.473 90.744 215.708 91.411 213.875 92.9451L215.158 94.4789ZM221.957 92.744H229.973V90.744H221.957V92.744ZM230.973 91.744V90.208H228.973V91.744H230.973ZM230.973 90.208C230.973 87.8455 230.307 85.8927 228.826 84.5285L227.471 85.9995C228.422 86.8753 228.973 88.2185 228.973 90.208H230.973ZM228.836 84.538C227.372 83.1507 225.311 82.536 222.821 82.536V84.536C225.002 84.536 226.493 85.0733 227.461 85.99L228.836 84.538ZM222.821 82.536C221.105 82.536 219.451 82.8282 217.866 83.414L218.559 85.29C219.918 84.7878 221.336 84.536 222.821 84.536V82.536ZM217.884 83.4075C216.303 83.9573 214.923 84.7388 213.76 85.7608L215.081 87.2632C216.03 86.4292 217.178 85.7707 218.541 85.2965L217.884 83.4075ZM215.277 85.9951L213.741 83.4511L212.028 84.4849L213.564 87.0289L215.277 85.9951ZM213.532 84.7299C214.7 83.7368 216.117 82.9646 217.799 82.424L217.186 80.52C215.284 81.1314 213.629 82.0231 212.237 83.2061L213.532 84.7299ZM217.814 82.419C219.497 81.8478 221.276 81.56 223.157 81.56V79.56C221.069 79.56 219.072 79.8802 217.171 80.525L217.814 82.419ZM221.957 104.552C224.03 104.552 225.87 104.084 227.432 103.103L226.369 101.409C225.179 102.156 223.723 102.552 221.957 102.552V104.552ZM227.446 103.094C229.01 102.076 230.159 100.626 230.9 98.7905L229.045 98.0415C228.442 99.5341 227.543 100.644 226.355 101.418L227.446 103.094ZM230.973 98.416V94.288H228.973V98.416H230.973ZM229.973 93.288H222.053V95.288H229.973V93.288ZM222.053 93.288C219.807 93.288 217.945 93.6733 216.621 94.5953C215.231 95.5632 214.573 97.0229 214.573 98.8H216.573C216.573 97.5691 216.994 96.7728 217.764 96.2367C218.6 95.6547 219.978 95.288 222.053 95.288V93.288ZM214.573 98.8C214.573 100.567 215.265 102.034 216.642 103.096L217.863 101.512C217 100.846 216.573 99.9767 216.573 98.8H214.573ZM216.656 103.107C218.01 104.113 219.818 104.552 221.957 104.552V102.552C220.063 102.552 218.735 102.159 217.849 101.501L216.656 103.107ZM264.957 82.192L264.464 83.0621L264.475 83.0682L264.957 82.192ZM269.469 86.704L270.342 86.2171L270.342 86.2171L269.469 86.704ZM269.469 100.096L270.342 100.583L270.342 100.583L269.469 100.096ZM264.957 104.656L265.445 105.529L265.45 105.526L264.957 104.656ZM252.957 104.992L252.489 105.876L252.499 105.881L252.51 105.886L252.957 104.992ZM248.925 101.248L249.765 100.705L247.925 97.8618V101.248H248.925ZM248.925 115.312V116.312H249.925V115.312H248.925ZM245.517 115.312H244.517V116.312H245.517V115.312ZM245.517 80.752V79.752H244.517V80.752H245.517ZM248.781 80.752H249.781V79.752H248.781V80.752ZM248.781 85.744H247.781V89.277L249.633 86.2681L248.781 85.744ZM252.813 81.904L252.346 81.0198L252.339 81.0235L252.813 81.904ZM263.085 102.016L263.571 102.89L263.578 102.886L263.585 102.882L263.085 102.016ZM266.445 98.512L265.57 98.0279L265.566 98.0351L265.562 98.0424L266.445 98.512ZM266.445 88.288L265.562 88.7576L265.568 88.7689L265.574 88.7801L266.445 88.288ZM263.085 84.784L263.585 83.9181L263.585 83.9181L263.085 84.784ZM253.437 84.784L252.937 83.9181L252.928 83.9231L253.437 84.784ZM250.077 88.288L249.202 87.8039L249.198 87.8105L250.077 88.288ZM250.077 98.512L249.194 98.9816L249.198 98.9889L249.202 98.9961L250.077 98.512ZM253.437 102.016L252.928 102.877L252.94 102.884L252.951 102.89L253.437 102.016ZM258.525 81.56C260.733 81.56 262.705 82.0654 264.464 83.062L265.45 81.322C263.369 80.1426 261.053 79.56 258.525 79.56V81.56ZM264.475 83.0682C266.227 84.0319 267.597 85.3994 268.596 87.1909L270.342 86.2171C269.165 84.1046 267.527 82.4641 265.439 81.3158L264.475 83.0682ZM268.596 87.1909C269.591 88.9772 270.101 91.0301 270.101 93.376H272.101C272.101 90.7299 271.523 88.3348 270.342 86.2171L268.596 87.1909ZM270.101 93.376C270.101 95.7563 269.59 97.8247 268.596 99.6091L270.342 100.583C271.524 98.4633 272.101 96.0517 272.101 93.376H270.101ZM268.596 99.6091C267.596 101.403 266.222 102.79 264.464 103.786L265.45 105.526C267.532 104.346 269.166 102.693 270.342 100.583L268.596 99.6091ZM264.469 103.783C262.746 104.747 260.773 105.24 258.525 105.24V107.24C261.077 107.24 263.392 106.677 265.445 105.529L264.469 103.783ZM258.525 105.24C256.616 105.24 254.916 104.853 253.404 104.098L252.51 105.886C254.326 106.795 256.338 107.24 258.525 107.24V105.24ZM253.425 104.108C251.952 103.328 250.733 102.201 249.765 100.705L248.085 101.791C249.229 103.559 250.698 104.928 252.489 105.876L253.425 104.108ZM247.925 101.248V115.312H249.925V101.248H247.925ZM248.925 114.312H245.517V116.312H248.925V114.312ZM246.517 115.312V80.752H244.517V115.312H246.517ZM245.517 81.752H248.781V79.752H245.517V81.752ZM247.781 80.752V85.744H249.781V80.752H247.781ZM249.633 86.2681C250.568 84.7488 251.784 83.5941 253.287 82.7845L252.339 81.0235C250.514 82.0059 249.042 83.4112 247.929 85.2199L249.633 86.2681ZM253.28 82.7882C254.818 81.9757 256.559 81.56 258.525 81.56V79.56C256.267 79.56 254.2 80.0403 252.346 81.0198L253.28 82.7882ZM258.285 104.216C260.203 104.216 261.972 103.778 263.571 102.89L262.599 101.142C261.318 101.854 259.887 102.216 258.285 102.216V104.216ZM263.585 102.882C265.191 101.954 266.442 100.647 267.328 98.9816L265.562 98.0424C264.848 99.3853 263.859 100.414 262.585 101.15L263.585 102.882ZM267.32 98.9961C268.243 97.3272 268.693 95.4451 268.693 93.376H266.693C266.693 95.1469 266.311 96.6888 265.57 98.0279L267.32 98.9961ZM268.693 93.376C268.693 91.3073 268.243 89.4375 267.316 87.7959L265.574 88.7801C266.311 90.0825 266.693 91.6047 266.693 93.376H268.693ZM267.328 87.8184C266.442 86.1533 265.191 84.8462 263.585 83.9181L262.585 85.6499C263.859 86.3858 264.848 87.4147 265.562 88.7576L267.328 87.8184ZM263.585 83.9181C261.984 82.9931 260.21 82.536 258.285 82.536V84.536C259.88 84.536 261.306 84.9109 262.585 85.6499L263.585 83.9181ZM258.285 82.536C256.331 82.536 254.541 82.9915 252.937 83.9181L253.937 85.6499C255.213 84.9125 256.655 84.536 258.285 84.536V82.536ZM252.928 83.9231C251.359 84.8505 250.116 86.1522 249.202 87.8039L250.952 88.7721C251.702 87.4158 252.699 86.3815 253.946 85.6449L252.928 83.9231ZM249.198 87.8105C248.308 89.4492 247.877 91.3138 247.877 93.376H249.877C249.877 91.5982 250.246 90.0708 250.956 88.7655L249.198 87.8105ZM247.877 93.376C247.877 95.4387 248.308 97.3155 249.194 98.9816L250.96 98.0424C250.246 96.7005 249.877 95.1533 249.877 93.376H247.877ZM249.202 98.9961C250.116 100.648 251.359 101.95 252.928 102.877L253.946 101.155C252.699 100.418 251.702 99.3842 250.952 98.0279L249.202 98.9961ZM252.951 102.89C254.553 103.78 256.338 104.216 258.285 104.216V102.216C256.648 102.216 255.201 101.852 253.923 101.142L252.951 102.89ZM302.912 94.432V95.432H303.868L303.911 94.4774L302.912 94.432ZM281.792 94.432V93.432H280.716L280.795 94.505L281.792 94.432ZM284.816 100.816L284.149 101.561L284.157 101.568L284.816 100.816ZM296.048 102.4L296.431 103.324L296.441 103.32L296.45 103.316L296.048 102.4ZM299.456 99.904L300.211 99.2478L299.462 98.3863L298.706 99.2424L299.456 99.904ZM301.376 102.112L302.144 102.752L302.689 102.098L302.131 101.456L301.376 102.112ZM297.152 105.184L296.769 104.26L296.763 104.263L297.152 105.184ZM284.72 104.608L284.229 105.479L284.237 105.484L284.245 105.488L284.72 104.608ZM280.064 100L279.197 100.498L279.197 100.498L280.064 100ZM279.968 86.752L279.095 86.2651L279.089 86.2762L279.968 86.752ZM284.384 82.192L283.885 81.3255L283.879 81.3293L284.384 82.192ZM301.376 86.752L300.497 87.2278L300.5 87.2339L301.376 86.752ZM302.96 93.376L303.959 93.4214L303.96 93.3987V93.376H302.96ZM284.576 85.84L285.262 86.5682L285.262 86.5678L284.576 85.84ZM281.792 91.888L280.796 91.7986L280.698 92.888H281.792V91.888ZM299.696 91.888V92.888H300.79L300.692 91.7986L299.696 91.888ZM296.864 85.84L296.171 86.5611L296.179 86.568L296.186 86.5748L296.864 85.84ZM302.912 93.432H281.792V95.432H302.912V93.432ZM280.795 94.505C281.004 97.3661 282.117 99.7427 284.149 101.561L285.483 100.071C283.868 98.6253 282.964 96.7459 282.79 94.359L280.795 94.505ZM284.157 101.568C286.19 103.351 288.74 104.216 291.728 104.216V102.216C289.149 102.216 287.091 101.481 285.476 100.064L284.157 101.568ZM291.728 104.216C293.414 104.216 294.986 103.923 296.431 103.324L295.665 101.476C294.487 101.965 293.179 102.216 291.728 102.216V104.216ZM296.45 103.316C297.897 102.68 299.151 101.761 300.206 100.566L298.706 99.2424C297.841 100.223 296.824 100.968 295.646 101.484L296.45 103.316ZM298.702 100.56L300.622 102.768L302.131 101.456L300.211 99.2478L298.702 100.56ZM300.608 101.472C299.597 102.685 298.323 103.615 296.769 104.26L297.536 106.108C299.373 105.345 300.916 104.227 302.144 102.752L300.608 101.472ZM296.763 104.263C295.235 104.909 293.53 105.24 291.632 105.24V107.24C293.767 107.24 295.741 106.867 297.542 106.105L296.763 104.263ZM291.632 105.24C289.184 105.24 287.047 104.727 285.195 103.728L284.245 105.488C286.426 106.665 288.897 107.24 291.632 107.24V105.24ZM285.212 103.737C283.382 102.704 281.961 101.296 280.932 99.5023L279.197 100.498C280.407 102.608 282.09 104.272 284.229 105.479L285.212 103.737ZM280.932 99.5023C279.907 97.7159 279.384 95.6824 279.384 93.376H277.384C277.384 95.9976 277.982 98.3801 279.197 100.498L280.932 99.5023ZM279.384 93.376C279.384 91.0595 279.879 89.0181 280.848 87.2278L279.089 86.2762C277.945 88.3899 277.384 90.7645 277.384 93.376H279.384ZM280.842 87.2389C281.846 85.4364 283.194 84.0489 284.89 83.0547L283.879 81.3293C281.862 82.5111 280.266 84.1636 279.095 86.2651L280.842 87.2389ZM284.884 83.0584C286.609 82.0642 288.546 81.56 290.72 81.56V79.56C288.222 79.56 285.936 80.1438 283.885 81.3256L284.884 83.0584ZM290.72 81.56C292.894 81.56 294.813 82.0642 296.503 83.0547L297.514 81.3293C295.492 80.1438 293.218 79.56 290.72 79.56V81.56ZM296.503 83.0547C298.196 84.0473 299.525 85.4312 300.497 87.2278L302.256 86.2762C301.116 84.1688 299.533 82.5127 297.514 81.3293L296.503 83.0547ZM300.5 87.2339C301.464 88.9868 301.96 91.0248 301.96 93.376H303.96C303.96 90.7352 303.4 88.3572 302.252 86.2701L300.5 87.2339ZM301.961 93.3306L301.913 94.3866L303.911 94.4774L303.959 93.4214L301.961 93.3306ZM290.72 82.488C288.051 82.488 285.753 83.3575 283.89 85.1122L285.262 86.5678C286.728 85.1865 288.525 84.488 290.72 84.488V82.488ZM283.891 85.1118C282.059 86.8357 281.039 89.0898 280.796 91.7986L282.788 91.9774C282.993 89.6942 283.829 87.9163 285.262 86.5682L283.891 85.1118ZM281.792 92.888H299.696V90.888H281.792V92.888ZM300.692 91.7986C300.449 89.084 299.409 86.8279 297.543 85.1052L296.186 86.5748C297.648 87.9241 298.496 89.7 298.7 91.9774L300.692 91.7986ZM297.557 85.1189C295.721 83.3553 293.417 82.488 290.72 82.488V84.488C292.951 84.488 294.743 85.1887 296.171 86.5611L297.557 85.1189ZM326.073 104.464L326.742 105.207L327.303 104.702L326.971 104.024L326.073 104.464ZM323.673 105.808L323.969 106.763L323.979 106.76L323.989 106.757L323.673 105.808ZM315.273 104.32L314.566 105.027L314.566 105.027L315.273 104.32ZM313.353 83.632H314.353V82.632H313.353V83.632ZM308.841 83.632H307.841V84.632H308.841V83.632ZM308.841 80.752V79.752H307.841V80.752H308.841ZM313.353 80.752V81.752H314.353V80.752H313.353ZM313.353 75.232V74.232H312.353V75.232H313.353ZM316.761 75.232H317.761V74.232H316.761V75.232ZM316.761 80.752H315.761V81.752H316.761V80.752ZM324.441 80.752H325.441V79.752H324.441V80.752ZM324.441 83.632V84.632H325.441V83.632H324.441ZM316.761 83.632V82.632H315.761V83.632H316.761ZM317.865 102.16L317.129 102.837L317.143 102.852L317.158 102.867L317.865 102.16ZM323.145 102.976L322.829 102.027L322.822 102.03L322.815 102.032L323.145 102.976ZM324.873 102.016L325.771 101.576L325.199 100.41L324.218 101.26L324.873 102.016ZM325.404 103.721C324.883 104.19 324.209 104.575 323.357 104.859L323.989 106.757C325.057 106.401 325.983 105.89 326.742 105.207L325.404 103.721ZM323.377 104.853C322.55 105.11 321.674 105.24 320.745 105.24V107.24C321.864 107.24 322.94 107.082 323.969 106.763L323.377 104.853ZM320.745 105.24C318.557 105.24 317.02 104.653 315.98 103.613L314.566 105.027C316.086 106.547 318.197 107.24 320.745 107.24V105.24ZM315.98 103.613C314.938 102.571 314.353 101.047 314.353 98.896H312.353C312.353 101.417 313.048 103.509 314.566 105.027L315.98 103.613ZM314.353 98.896V83.632H312.353V98.896H314.353ZM313.353 82.632H308.841V84.632H313.353V82.632ZM309.841 83.632V80.752H307.841V83.632H309.841ZM308.841 81.752H313.353V79.752H308.841V81.752ZM314.353 80.752V75.232H312.353V80.752H314.353ZM313.353 76.232H316.761V74.232H313.353V76.232ZM315.761 75.232V80.752H317.761V75.232H315.761ZM316.761 81.752H324.441V79.752H316.761V81.752ZM323.441 80.752V83.632H325.441V80.752H323.441ZM324.441 82.632H316.761V84.632H324.441V82.632ZM315.761 83.632V98.704H317.761V83.632H315.761ZM315.761 98.704C315.761 100.362 316.167 101.792 317.129 102.837L318.601 101.483C318.091 100.928 317.761 100.054 317.761 98.704H315.761ZM317.158 102.867C318.164 103.874 319.538 104.312 321.129 104.312V102.312C319.904 102.312 319.102 101.982 318.572 101.453L317.158 102.867ZM321.129 104.312C321.941 104.312 322.725 104.182 323.475 103.92L322.815 102.032C322.285 102.218 321.725 102.312 321.129 102.312V104.312ZM323.461 103.925C324.243 103.664 324.938 103.283 325.528 102.772L324.218 101.26C323.848 101.581 323.391 101.84 322.829 102.027L323.461 103.925ZM323.975 102.456L325.175 104.904L326.971 104.024L325.771 101.576L323.975 102.456Z" fill="black"/>
</svg>
